<?xml version="1.0" encoding="UTF-8" standalone="no"?>
<svg
   xmlns:osb="http://www.openswatchbook.org/uri/2009/osb"
   xmlns:dc="http://purl.org/dc/elements/1.1/"
   xmlns:cc="http://creativecommons.org/ns#"
   xmlns:rdf="http://www.w3.org/1999/02/22-rdf-syntax-ns#"
   xmlns:svg="http://www.w3.org/2000/svg"
   xmlns="http://www.w3.org/2000/svg"
   xmlns:sodipodi="http://sodipodi.sourceforge.net/DTD/sodipodi-0.dtd"
   xmlns:inkscape="http://www.inkscape.org/namespaces/inkscape"
   width="210mm"
   height="297mm"
   viewBox="0 0 210 297"
   version="1.1"
   id="svg8"
   inkscape:version="1.0.1 (3bc2e813f5, 2020-09-07)"
   sodipodi:docname="drawinghomework.svg">
  <defs
     id="defs2">
    <linearGradient
       id="linearGradient951"
       osb:paint="solid">
      <stop
         style="stop-color:#000000;stop-opacity:1;"
         offset="0"
         id="stop949" />
    </linearGradient>
  </defs>
  <sodipodi:namedview
     id="base"
     pagecolor="#ffffff"
     bordercolor="#666666"
     borderopacity="1.0"
     inkscape:pageopacity="0.0"
     inkscape:pageshadow="2"
     inkscape:zoom="1"
     inkscape:cx="257.20319"
     inkscape:cy="614.71378"
     inkscape:document-units="mm"
     inkscape:current-layer="layer1"
     inkscape:document-rotation="0"
     showgrid="false"
     inkscape:snap-global="true"
     inkscape:window-width="1444"
     inkscape:window-height="1030"
     inkscape:window-x="611"
     inkscape:window-y="125"
     inkscape:window-maximized="0"
     showguides="true"
     inkscape:guide-bbox="true">
    <sodipodi:guide
       position="66.614903,193.72328"
       orientation="1,0"
       id="guide1105" />
    <sodipodi:guide
       position="73.408915,204.39111"
       orientation="0,-1"
       id="guide1315" />
  </sodipodi:namedview>
  <metadata
     id="metadata5">
    <rdf:RDF>
      <cc:Work
         rdf:about="">
        <dc:format>image/svg+xml</dc:format>
        <dc:type
           rdf:resource="http://purl.org/dc/dcmitype/StillImage" />
        <dc:title></dc:title>
      </cc:Work>
    </rdf:RDF>
  </metadata>
  <g
     inkscape:label="Layer 1"
     inkscape:groupmode="layer"
     id="layer1">
    <path
       style="fill:none;stroke-width:0;fill-opacity:1;stroke:none;stroke-opacity:1;stroke-miterlimit:4;stroke-dasharray:none"
       d="m 416.54753,473.99005 -18.62469,-18.94668 -0.006,-19.37051 c -0.003,-10.65378 -0.11454,-40.66291 -0.24739,-66.68695 l -0.24154,-47.31645 19.46189,-28.00305 19.46189,-28.00305 87.04092,10e-4 87.04093,0.001 16.38095,30.69944 16.38095,30.69945 -0.18875,60.59479 -0.18876,60.59479 -19.05579,20.64196 c -10.48068,11.35307 -19.64305,21.23812 -20.36082,21.96678 l -1.30504,1.32483 -60.35487,0.24279 c -33.19517,0.13353 -70.75312,0.30198 -83.4621,0.37433 l -23.10724,0.13155 z"
       id="path86"
       transform="scale(0.26458333)" />
    <path
       style="fill:none;fill-opacity:1;stroke:none;stroke-width:1.00157;stroke-miterlimit:4;stroke-dasharray:none;stroke-opacity:1"
       d="m 416.41048,473.0878 -18.37091,-19.10709 v -66.1765 -66.1765 l 19.34548,-27.85906 19.34548,-27.85907 86.77932,0.25812 86.77932,0.25812 16.10366,30.16219 16.10366,30.1622 -0.0506,60.75153 -0.0506,60.75153 -20.39948,21.97082 -20.39949,21.97082 h -83.40749 -83.40748 z"
       id="path939"
       transform="scale(0.26458333)" />
    <path
       style="fill:none;fill-opacity:1;stroke:none;stroke-width:1.00157;stroke-miterlimit:4;stroke-dasharray:none;stroke-opacity:1"
       d="m 416.41048,473.0878 -18.37091,-19.10709 v -66.1765 -66.1765 l 19.34548,-27.85906 19.34548,-27.85907 86.77932,0.25812 86.77932,0.25812 16.10366,30.16219 16.10366,30.1622 -0.0506,60.75153 -0.0506,60.75153 -20.39948,21.97082 -20.39949,21.97082 h -83.40749 -83.40748 z"
       id="path941"
       transform="scale(0.26458333)" />
    <path
       style="fill:none;fill-opacity:1;stroke:none;stroke-width:1.00157;stroke-miterlimit:4;stroke-dasharray:none;stroke-opacity:1"
       d="m 416.41048,473.0878 -18.37091,-19.10709 v -66.1765 -66.1765 l 19.34548,-27.85906 19.34548,-27.85907 86.77932,0.25812 86.77932,0.25812 16.10366,30.16219 16.10366,30.1622 -0.0506,60.75153 -0.0506,60.75153 -20.39948,21.97082 -20.39949,21.97082 h -83.40749 -83.40748 z"
       id="path943"
       transform="scale(0.26458333)" />
    <path
       style="fill:none;fill-opacity:1;stroke:none;stroke-width:1.00157;stroke-miterlimit:4;stroke-dasharray:none;stroke-opacity:1"
       d="m 416.41048,473.0878 -18.37091,-19.10709 v -66.1765 -66.1765 l 19.34548,-27.85906 19.34548,-27.85907 86.77932,0.25812 86.77932,0.25812 16.10366,30.16219 16.10366,30.1622 -0.0506,60.75153 -0.0506,60.75153 -20.39948,21.97082 -20.39949,21.97082 h -83.40749 -83.40748 z"
       id="path945"
       transform="scale(0.26458333)" />
    <path
       id="path961"
       style="fill:#ffcc00;stroke:none;stroke-width:0.264583px;stroke-linecap:butt;stroke-linejoin:miter;stroke-opacity:1"
       d="m 34.162107,123.93168 c 0.448543,3.86579 -13.80413,27.6919 20.74819,31.91074 6.824078,0.83323 9.44035,-0.33379 13.015582,-2.74444 13.888434,-9.36444 -0.301813,-22.05698 -12.734729,-17.59786 -11.602266,4.1612 -22.209607,9.4153 -21.029043,-11.56844 z"
       sodipodi:nodetypes="csssc" />
    <path
       id="path965"
       style="opacity:1;fill:#0000ff;fill-opacity:1;stroke:none;stroke-width:1.00157;stroke-miterlimit:4;stroke-dasharray:none;stroke-opacity:1"
       transform="scale(0.26458333)"
       d="m 293.32617,367.86914 -27.08398,1.52734 c 9.79809,-0.90515 -2.47871,-0.008 -0.0488,0.004 h 0.002 c 0.002,3e-5 0.002,0 0.004,0 z m -27.13281,1.53125 c -48.73843,4.49635 -78.39946,23.38923 -109.12695,45.6875 -21.59206,15.6689 -15.4915,42.08468 0.88867,51.41406 46.12561,26.27097 28.68644,18.71425 53.03515,26.42774 63.33578,20.06434 71.44336,20.89542 71.44336,23.80664 33.97764,19.4685 12.16097,54.24771 11.95313,53.6914 0.26797,1.62365 -11.08443,10.06279 -22.10938,16.39649 0,0 -42.62876,10.76163 -25.76367,7.57031 57.63316,-3.79427 114.97197,-54.94361 93.50977,-88.80859 -16.26713,-25.66772 -36.48244,-38.67774 -36.48242,-38.67774 -6.69785,-10.19542 -51.7456,-26.11031 -65.0293,-56.71484 -3.44172,5.57027 -6.14873,10.33111 -5.22266,8.45703 1.37276,-2.77791 3.14399,-5.62046 5.22266,-8.45703 2.95722,-16.65192 -2.95978,-27.22853 27.68164,-40.79297 z m 16.2207,224.63867 c 0.007,0.008 0.0115,0.016 0.0176,0.0274 0.017,-10e-4 0.64909,-0.0274 0.63477,-0.0274 -0.21725,0 -0.43495,-4.9e-4 -0.65235,0 z m 80.78125,11.65039 c -0.0142,0.015 -0.0324,0.0332 -0.0469,0.0469 -0.22787,0.2691 -0.46467,0.53056 -0.69336,0.79883 0.34503,0.0151 0.63677,0.0238 0.91992,0.0351 -0.0566,-0.29442 -0.12054,-0.58772 -0.17969,-0.88086 z m -123.07812,5.16797 c 9.5e-4,0.008 0.003,0.012 0.004,0.0195 0.003,0.004 0.005,0.008 0.008,0.0117 z m -12.2793,6.04688 c -0.0387,0.16063 -0.0773,0.3183 -0.12305,0.47851 0.0965,-0.0805 0.23491,-0.19041 0.32422,-0.26562 -0.0668,-0.0714 -0.13442,-0.14184 -0.20117,-0.21289 z m -70.38672,10.15625 c -0.51222,0.0227 -1.02634,0.0314 -1.53906,0.0351 0.31253,0.12889 0.72813,0.27201 1.24805,0.43555 0.10673,-0.16403 0.17143,-0.29323 0.29101,-0.46875 z m 158.11133,6.07226 c -0.53515,0.37229 -1.26966,0.88892 -1.82812,1.27735 0.25054,-0.0764 0.63846,-0.18481 0.86132,-0.25586 0.13232,-0.0639 0.26422,-0.12949 0.39649,-0.19336 0.18894,-0.27629 0.37675,-0.55657 0.57031,-0.82813 z" />
    <path
       id="path973"
       style="opacity:1;fill:#0000ff;fill-opacity:1;stroke:none;stroke-width:0.264999;stroke-miterlimit:4;stroke-dasharray:none;stroke-opacity:1"
       d="m 87.96712,95.453076 c -0.0072,0.0016 -0.01146,0.0052 -0.0093,0.01394 0.0013,-7.94e-4 0.0024,-0.0019 0.0036,-0.0026 0.0016,-0.0036 0.004,-0.0079 0.0057,-0.01138 z m -0.962734,0.857314 c -0.0013,2.64e-4 -0.0028,7.93e-4 -0.0041,0.0011 -5.29e-4,0.0011 -5.29e-4,0.0016 -0.0016,0.0031 7.94e-4,7.6e-5 0.0013,5.29e-4 0.0021,5.29e-4 0.0011,-0.0019 0.0024,-0.003 0.0036,-0.0047 z m 1.013375,0.08526 c -0.0072,0.0042 -0.01466,0.0079 -0.0217,0.01188 0.01524,-0.0048 0.02043,-0.0072 0.03359,-0.01138 -0.004,-8.5e-5 -0.0079,-2.33e-4 -0.01188,-5.29e-4 z m -0.06511,0.02429 c 9e-5,2.65e-4 -9e-5,7.94e-4 0,0.0011 0.0011,-2.64e-4 0.0021,-7.93e-4 0.0031,-0.0011 -0.0011,-6.9e-5 -0.0021,7.4e-5 -0.0031,0 z m -0.21549,0.05271 c -5.29e-4,2.65e-4 -0.0016,0.0013 -0.0021,0.0016 -1.19e-4,7.94e-4 -2.25e-4,0.0013 -5.29e-4,0.0021 0.0013,-0.0013 0.0013,-7.94e-4 0.0026,-0.0021 2.64e-4,-2.65e-4 -2.65e-4,-0.0011 0,-0.0016 z M 87.426585,96.545 c 7.94e-4,1.59e-4 0.0013,5.29e-4 0.0021,5.29e-4 l 5.29e-4,-5.29e-4 c -0.0011,-2.09e-4 -0.0019,-1.1e-5 -0.0026,0 z m -0.04341,0.03204 c -0.0021,0.0038 -0.0042,0.0077 -0.0062,0.01138 0.0058,-0.0016 0.01024,-0.003 0.01601,-0.0047 -0.0034,-0.0016 -0.0067,-0.0042 -0.0098,-0.0067 z m -0.0062,0.01138 c -0.326141,0.09338 -0.742071,0.20618 -1.190109,0.324528 0.09468,0.458861 0.168648,0.483624 0,0 -2.693,0.90865 -6.249519,1.512686 -7.537,1.218538 -0.976815,-0.22317 -2.091483,-0.519901 -3.816305,0.410829 -1.146738,0.618784 -1.091284,3.855325 0.19327,4.763015 2.041748,2.00293 2.538987,1.41381 4.292246,1.2945 0.0029,-0.002 0.0056,-0.005 0.01085,-0.005 h 0.0155 0.01551 0.01601 l 0.47284,-0.10077 c 0.675587,0.0749 4.400102,-2.39144 5.307168,-3.95945 0.489236,-0.845735 1.518804,-2.653844 2.220021,-3.946014 z"
       sodipodi:nodetypes="cccccccccccscccscccccccscccccccccsccssscsccccsssscs" />
  </g>
</svg>
